<mxfile host="app.diagrams.net" modified="2023-03-30T11:26:45.360Z" agent="Mozilla/5.0 (X11; Linux x86_64) AppleWebKit/537.36 (KHTML, like Gecko) Chrome/111.0.0.0 Safari/537.36" etag="Xxus6QgpX2pw3jFO8Pd2" version="21.1.2" type="device">
  <diagram name="Page-1" id="PXW5eSoZQYHf_p2Jx9VN">
    <mxGraphModel dx="700" dy="359" grid="1" gridSize="10" guides="1" tooltips="1" connect="1" arrows="1" fold="1" page="1" pageScale="1" pageWidth="850" pageHeight="1100" math="0" shadow="0">
      <root>
        <mxCell id="0" />
        <mxCell id="1" parent="0" />
        <mxCell id="usFPSTyWjMF30qLtJpaj-1" value="Validator 6" style="ellipse;whiteSpace=wrap;html=1;" vertex="1" parent="1">
          <mxGeometry x="270" y="530" width="80" height="80" as="geometry" />
        </mxCell>
        <mxCell id="usFPSTyWjMF30qLtJpaj-2" value="Validator 5" style="ellipse;whiteSpace=wrap;html=1;" vertex="1" parent="1">
          <mxGeometry x="340" y="600" width="80" height="80" as="geometry" />
        </mxCell>
        <mxCell id="usFPSTyWjMF30qLtJpaj-3" value="Validator 7" style="ellipse;whiteSpace=wrap;html=1;" vertex="1" parent="1">
          <mxGeometry x="310" y="440" width="80" height="80" as="geometry" />
        </mxCell>
        <mxCell id="usFPSTyWjMF30qLtJpaj-4" value="Validator 3" style="ellipse;whiteSpace=wrap;html=1;" vertex="1" parent="1">
          <mxGeometry x="500" y="530" width="80" height="80" as="geometry" />
        </mxCell>
        <mxCell id="usFPSTyWjMF30qLtJpaj-6" value="Validator 1" style="ellipse;whiteSpace=wrap;html=1;" vertex="1" parent="1">
          <mxGeometry x="390" y="400" width="80" height="80" as="geometry" />
        </mxCell>
        <mxCell id="usFPSTyWjMF30qLtJpaj-7" value="Validator 2" style="ellipse;whiteSpace=wrap;html=1;" vertex="1" parent="1">
          <mxGeometry x="470" y="440" width="80" height="80" as="geometry" />
        </mxCell>
        <mxCell id="usFPSTyWjMF30qLtJpaj-8" value="Validator 4" style="ellipse;whiteSpace=wrap;html=1;" vertex="1" parent="1">
          <mxGeometry x="440" y="600" width="80" height="80" as="geometry" />
        </mxCell>
        <mxCell id="usFPSTyWjMF30qLtJpaj-11" value="" style="endArrow=none;html=1;rounded=0;" edge="1" parent="1" source="usFPSTyWjMF30qLtJpaj-2" target="usFPSTyWjMF30qLtJpaj-8">
          <mxGeometry width="50" height="50" relative="1" as="geometry">
            <mxPoint x="350" y="600" as="sourcePoint" />
            <mxPoint x="400" y="550" as="targetPoint" />
          </mxGeometry>
        </mxCell>
        <mxCell id="usFPSTyWjMF30qLtJpaj-12" value="" style="endArrow=none;html=1;rounded=0;" edge="1" parent="1" source="usFPSTyWjMF30qLtJpaj-1" target="usFPSTyWjMF30qLtJpaj-2">
          <mxGeometry width="50" height="50" relative="1" as="geometry">
            <mxPoint x="350" y="600" as="sourcePoint" />
            <mxPoint x="400" y="550" as="targetPoint" />
          </mxGeometry>
        </mxCell>
        <mxCell id="usFPSTyWjMF30qLtJpaj-13" value="" style="endArrow=none;html=1;rounded=0;exitX=0.691;exitY=0.023;exitDx=0;exitDy=0;exitPerimeter=0;entryX=0.218;entryY=0.934;entryDx=0;entryDy=0;entryPerimeter=0;" edge="1" parent="1" source="usFPSTyWjMF30qLtJpaj-1" target="usFPSTyWjMF30qLtJpaj-3">
          <mxGeometry width="50" height="50" relative="1" as="geometry">
            <mxPoint x="300" y="570" as="sourcePoint" />
            <mxPoint x="350" y="520" as="targetPoint" />
          </mxGeometry>
        </mxCell>
        <mxCell id="usFPSTyWjMF30qLtJpaj-14" value="" style="endArrow=none;html=1;rounded=0;entryX=0.039;entryY=0.657;entryDx=0;entryDy=0;entryPerimeter=0;exitX=0.914;exitY=0.229;exitDx=0;exitDy=0;exitPerimeter=0;" edge="1" parent="1" source="usFPSTyWjMF30qLtJpaj-3" target="usFPSTyWjMF30qLtJpaj-6">
          <mxGeometry width="50" height="50" relative="1" as="geometry">
            <mxPoint x="350" y="600" as="sourcePoint" />
            <mxPoint x="400" y="550" as="targetPoint" />
          </mxGeometry>
        </mxCell>
        <mxCell id="usFPSTyWjMF30qLtJpaj-15" value="" style="endArrow=none;html=1;rounded=0;entryX=0.95;entryY=0.702;entryDx=0;entryDy=0;entryPerimeter=0;exitX=0.039;exitY=0.3;exitDx=0;exitDy=0;exitPerimeter=0;" edge="1" parent="1" source="usFPSTyWjMF30qLtJpaj-7" target="usFPSTyWjMF30qLtJpaj-6">
          <mxGeometry width="50" height="50" relative="1" as="geometry">
            <mxPoint x="350" y="600" as="sourcePoint" />
            <mxPoint x="400" y="550" as="targetPoint" />
          </mxGeometry>
        </mxCell>
        <mxCell id="usFPSTyWjMF30qLtJpaj-16" value="" style="endArrow=none;html=1;rounded=0;entryX=0.691;entryY=0.961;entryDx=0;entryDy=0;entryPerimeter=0;exitX=0.396;exitY=0.023;exitDx=0;exitDy=0;exitPerimeter=0;" edge="1" parent="1" source="usFPSTyWjMF30qLtJpaj-4" target="usFPSTyWjMF30qLtJpaj-7">
          <mxGeometry width="50" height="50" relative="1" as="geometry">
            <mxPoint x="350" y="600" as="sourcePoint" />
            <mxPoint x="400" y="550" as="targetPoint" />
          </mxGeometry>
        </mxCell>
        <mxCell id="usFPSTyWjMF30qLtJpaj-17" value="" style="endArrow=none;html=1;rounded=0;entryX=0.343;entryY=1.014;entryDx=0;entryDy=0;entryPerimeter=0;" edge="1" parent="1" source="usFPSTyWjMF30qLtJpaj-8" target="usFPSTyWjMF30qLtJpaj-4">
          <mxGeometry width="50" height="50" relative="1" as="geometry">
            <mxPoint x="520" y="640" as="sourcePoint" />
            <mxPoint x="400" y="550" as="targetPoint" />
          </mxGeometry>
        </mxCell>
        <mxCell id="usFPSTyWjMF30qLtJpaj-19" value="" style="endArrow=none;html=1;rounded=0;entryX=1.014;entryY=0.595;entryDx=0;entryDy=0;exitX=-0.021;exitY=0.618;exitDx=0;exitDy=0;entryPerimeter=0;exitPerimeter=0;" edge="1" parent="1" source="usFPSTyWjMF30qLtJpaj-7" target="usFPSTyWjMF30qLtJpaj-3">
          <mxGeometry width="50" height="50" relative="1" as="geometry">
            <mxPoint x="390" y="570" as="sourcePoint" />
            <mxPoint x="440" y="520" as="targetPoint" />
          </mxGeometry>
        </mxCell>
        <mxCell id="usFPSTyWjMF30qLtJpaj-20" value="" style="endArrow=none;html=1;rounded=0;entryX=0.5;entryY=1;entryDx=0;entryDy=0;exitX=0.943;exitY=0.279;exitDx=0;exitDy=0;exitPerimeter=0;" edge="1" parent="1" source="usFPSTyWjMF30qLtJpaj-1" target="usFPSTyWjMF30qLtJpaj-6">
          <mxGeometry width="50" height="50" relative="1" as="geometry">
            <mxPoint x="410" y="570" as="sourcePoint" />
            <mxPoint x="460" y="520" as="targetPoint" />
          </mxGeometry>
        </mxCell>
        <mxCell id="usFPSTyWjMF30qLtJpaj-21" value="" style="endArrow=none;html=1;rounded=0;entryX=0.555;entryY=0.998;entryDx=0;entryDy=0;entryPerimeter=0;exitX=0.099;exitY=0.147;exitDx=0;exitDy=0;exitPerimeter=0;" edge="1" parent="1" source="usFPSTyWjMF30qLtJpaj-4" target="usFPSTyWjMF30qLtJpaj-6">
          <mxGeometry width="50" height="50" relative="1" as="geometry">
            <mxPoint x="440" y="500" as="sourcePoint" />
            <mxPoint x="490" y="450" as="targetPoint" />
          </mxGeometry>
        </mxCell>
        <mxCell id="usFPSTyWjMF30qLtJpaj-22" value="" style="endArrow=none;html=1;rounded=0;entryX=0.386;entryY=0.998;entryDx=0;entryDy=0;entryPerimeter=0;exitX=0.5;exitY=0;exitDx=0;exitDy=0;" edge="1" parent="1" source="usFPSTyWjMF30qLtJpaj-8" target="usFPSTyWjMF30qLtJpaj-7">
          <mxGeometry width="50" height="50" relative="1" as="geometry">
            <mxPoint x="430" y="595" as="sourcePoint" />
            <mxPoint x="480" y="545" as="targetPoint" />
          </mxGeometry>
        </mxCell>
        <mxCell id="usFPSTyWjMF30qLtJpaj-25" value="" style="endArrow=none;html=1;rounded=0;entryX=0.5;entryY=1;entryDx=0;entryDy=0;" edge="1" parent="1" source="usFPSTyWjMF30qLtJpaj-8" target="usFPSTyWjMF30qLtJpaj-6">
          <mxGeometry width="50" height="50" relative="1" as="geometry">
            <mxPoint x="420" y="570" as="sourcePoint" />
            <mxPoint x="470" y="520" as="targetPoint" />
          </mxGeometry>
        </mxCell>
        <mxCell id="usFPSTyWjMF30qLtJpaj-27" value="" style="endArrow=none;html=1;rounded=0;entryX=0.5;entryY=1;entryDx=0;entryDy=0;exitX=0.625;exitY=0;exitDx=0;exitDy=0;exitPerimeter=0;" edge="1" parent="1" source="usFPSTyWjMF30qLtJpaj-2" target="usFPSTyWjMF30qLtJpaj-6">
          <mxGeometry width="50" height="50" relative="1" as="geometry">
            <mxPoint x="440" y="500" as="sourcePoint" />
            <mxPoint x="490" y="450" as="targetPoint" />
          </mxGeometry>
        </mxCell>
        <mxCell id="usFPSTyWjMF30qLtJpaj-28" value="" style="endArrow=none;html=1;rounded=0;entryX=0;entryY=0;entryDx=0;entryDy=0;exitX=0.991;exitY=0.594;exitDx=0;exitDy=0;exitPerimeter=0;" edge="1" parent="1" source="usFPSTyWjMF30qLtJpaj-1" target="usFPSTyWjMF30qLtJpaj-8">
          <mxGeometry width="50" height="50" relative="1" as="geometry">
            <mxPoint x="440" y="500" as="sourcePoint" />
            <mxPoint x="490" y="450" as="targetPoint" />
          </mxGeometry>
        </mxCell>
        <mxCell id="usFPSTyWjMF30qLtJpaj-29" value="" style="endArrow=none;html=1;rounded=0;entryX=0;entryY=0.625;entryDx=0;entryDy=0;entryPerimeter=0;exitX=0.953;exitY=0.219;exitDx=0;exitDy=0;exitPerimeter=0;" edge="1" parent="1" source="usFPSTyWjMF30qLtJpaj-2" target="usFPSTyWjMF30qLtJpaj-4">
          <mxGeometry width="50" height="50" relative="1" as="geometry">
            <mxPoint x="440" y="500" as="sourcePoint" />
            <mxPoint x="490" y="450" as="targetPoint" />
          </mxGeometry>
        </mxCell>
        <mxCell id="usFPSTyWjMF30qLtJpaj-30" value="" style="endArrow=none;html=1;rounded=0;entryX=0.43;entryY=-0.025;entryDx=0;entryDy=0;entryPerimeter=0;exitX=0.613;exitY=1.004;exitDx=0;exitDy=0;exitPerimeter=0;" edge="1" parent="1" source="usFPSTyWjMF30qLtJpaj-3" target="usFPSTyWjMF30qLtJpaj-2">
          <mxGeometry width="50" height="50" relative="1" as="geometry">
            <mxPoint x="440" y="500" as="sourcePoint" />
            <mxPoint x="490" y="450" as="targetPoint" />
          </mxGeometry>
        </mxCell>
        <mxCell id="usFPSTyWjMF30qLtJpaj-31" value="" style="endArrow=none;html=1;rounded=0;entryX=0.258;entryY=0.975;entryDx=0;entryDy=0;entryPerimeter=0;exitX=1;exitY=0;exitDx=0;exitDy=0;" edge="1" parent="1" source="usFPSTyWjMF30qLtJpaj-2" target="usFPSTyWjMF30qLtJpaj-7">
          <mxGeometry width="50" height="50" relative="1" as="geometry">
            <mxPoint x="440" y="500" as="sourcePoint" />
            <mxPoint x="490" y="450" as="targetPoint" />
          </mxGeometry>
        </mxCell>
        <mxCell id="usFPSTyWjMF30qLtJpaj-32" value="" style="endArrow=none;html=1;rounded=0;entryX=0.055;entryY=0.754;entryDx=0;entryDy=0;entryPerimeter=0;exitX=0.991;exitY=0.455;exitDx=0;exitDy=0;exitPerimeter=0;" edge="1" parent="1" source="usFPSTyWjMF30qLtJpaj-1" target="usFPSTyWjMF30qLtJpaj-7">
          <mxGeometry width="50" height="50" relative="1" as="geometry">
            <mxPoint x="440" y="500" as="sourcePoint" />
            <mxPoint x="490" y="450" as="targetPoint" />
          </mxGeometry>
        </mxCell>
        <mxCell id="usFPSTyWjMF30qLtJpaj-33" value="" style="endArrow=none;html=1;rounded=0;entryX=-0.006;entryY=0.333;entryDx=0;entryDy=0;entryPerimeter=0;exitX=1.008;exitY=0.577;exitDx=0;exitDy=0;exitPerimeter=0;" edge="1" parent="1" source="usFPSTyWjMF30qLtJpaj-1" target="usFPSTyWjMF30qLtJpaj-4">
          <mxGeometry width="50" height="50" relative="1" as="geometry">
            <mxPoint x="440" y="610" as="sourcePoint" />
            <mxPoint x="490" y="560" as="targetPoint" />
          </mxGeometry>
        </mxCell>
        <mxCell id="usFPSTyWjMF30qLtJpaj-34" value="" style="endArrow=none;html=1;rounded=0;entryX=0.058;entryY=0.245;entryDx=0;entryDy=0;entryPerimeter=0;exitX=0.927;exitY=0.777;exitDx=0;exitDy=0;exitPerimeter=0;" edge="1" parent="1" source="usFPSTyWjMF30qLtJpaj-3" target="usFPSTyWjMF30qLtJpaj-4">
          <mxGeometry width="50" height="50" relative="1" as="geometry">
            <mxPoint x="440" y="570" as="sourcePoint" />
            <mxPoint x="490" y="520" as="targetPoint" />
          </mxGeometry>
        </mxCell>
        <mxCell id="usFPSTyWjMF30qLtJpaj-35" value="" style="endArrow=none;html=1;rounded=0;entryX=0.232;entryY=0.045;entryDx=0;entryDy=0;entryPerimeter=0;exitX=0.799;exitY=0.894;exitDx=0;exitDy=0;exitPerimeter=0;" edge="1" parent="1" source="usFPSTyWjMF30qLtJpaj-3" target="usFPSTyWjMF30qLtJpaj-8">
          <mxGeometry width="50" height="50" relative="1" as="geometry">
            <mxPoint x="440" y="570" as="sourcePoint" />
            <mxPoint x="490" y="520" as="targetPoint" />
          </mxGeometry>
        </mxCell>
        <mxCell id="usFPSTyWjMF30qLtJpaj-18" value="Current Validators" style="text;html=1;strokeColor=none;fillColor=#FFFFFF;align=center;verticalAlign=middle;whiteSpace=wrap;rounded=0;" vertex="1" parent="1">
          <mxGeometry x="405" y="530" width="50" height="30" as="geometry" />
        </mxCell>
      </root>
    </mxGraphModel>
  </diagram>
</mxfile>
